<svg xmlns="http://www.w3.org/2000/svg" xmlns:xlink="http://www.w3.org/1999/xlink" width="500" zoomAndPan="magnify" viewBox="0 0 375 374.999991" height="500" preserveAspectRatio="xMidYMid meet" version="1.0"><defs><clipPath id="id1"><path d="M 53 78 L 334 78 L 334 278 L 53 278 Z M 53 78 " clip-rule="nonzero"/></clipPath><clipPath id="id2"><path d="M 248.476562 334.558594 L 17.375 155.261719 L 106.5625 40.300781 L 337.667969 219.597656 Z M 248.476562 334.558594 " clip-rule="nonzero"/></clipPath><clipPath id="id3"><path d="M 337.496094 219.820312 L 106.390625 40.523438 L 17.203125 155.484375 L 248.304688 334.78125 Z M 337.496094 219.820312 " clip-rule="nonzero"/></clipPath><clipPath id="id4"><path d="M 337.496094 219.820312 L 106.390625 40.523438 L 17.203125 155.484375 L 248.304688 334.78125 Z M 337.496094 219.820312 " clip-rule="nonzero"/></clipPath></defs><g clip-path="url(#id1)"><g clip-path="url(#id2)"><g clip-path="url(#id3)"><g clip-path="url(#id4)"><path fill="#ffffff" d="M 78.625 159.457031 C 85.136719 171.519531 91.054688 182.652344 97.136719 193.695312 C 99.230469 197.492188 101.480469 201.269531 104.101562 204.71875 C 114.507812 218.503906 125.785156 231.527344 138.910156 242.84375 C 167.457031 267.421875 200.445312 280.03125 238.234375 276.488281 C 272.96875 273.242188 301.984375 257.035156 326.574219 232.625 C 331.296875 227.933594 333.207031 222.949219 333.191406 216.960938 C 329.390625 219.582031 325.984375 221.664062 322.894531 224.128906 C 309.652344 234.703125 295.164062 242.84375 278.917969 247.96875 C 250.769531 256.84375 223.261719 254.71875 196.25 243.820312 C 189.972656 241.285156 184.109375 237.707031 177.9375 234.851562 C 145.464844 219.761719 125.898438 192.285156 108.761719 162.558594 C 103.796875 153.9375 99.632812 144.851562 95.164062 135.953125 C 94.332031 134.292969 93.777344 132.519531 94.183594 129.808594 C 104.636719 138.980469 115.085938 148.128906 125.429688 157.195312 C 132.03125 154.972656 135.472656 150.441406 138.691406 145.503906 C 140.574219 142.59375 140.621094 140.316406 138.210938 137.714844 C 133.59375 132.742188 129.269531 127.476562 124.628906 122.527344 C 111.6875 108.734375 98.636719 95.019531 85.609375 81.300781 C 84.800781 80.4375 83.808594 79.738281 82.785156 78.875 C 77.65625 80.445312 73.566406 82.984375 71.441406 88.183594 C 70.824219 89.707031 69.730469 91.175781 68.519531 92.3125 C 63.53125 97.011719 61.808594 102.875 62.367188 109.472656 C 63.226562 119.625 64.375 129.773438 65.152344 139.9375 C 65.5625 145.238281 65.703125 150.609375 65.410156 155.90625 C 65.09375 161.871094 62.804688 167.128906 58.675781 171.691406 C 55.605469 175.070312 52.839844 178.875 54.433594 183.773438 C 57.34375 185.488281 59.117188 183.933594 60.546875 182.328125 C 65.066406 177.265625 69.480469 172.121094 73.773438 166.859375 C 75.476562 164.851562 76.691406 162.464844 78.625 159.457031 Z M 78.625 159.457031 " fill-opacity="1" fill-rule="nonzero"/></g></g></g></g></svg>